<svg width="50" height="50" viewBox="0 0 50 50" fill="none" xmlns="http://www.w3.org/2000/svg">
<g clip-path="url(#clip0_107_114)">
<path d="M25 29.1667V33.3333C21.6848 33.3333 18.5054 34.6503 16.1612 36.9945C13.817 39.3387 12.5 42.5181 12.5 45.8333H8.33334C8.33334 41.4131 10.0893 37.1738 13.2149 34.0482C16.3405 30.9226 20.5797 29.1667 25 29.1667ZM25 27.0833C18.0938 27.0833 12.5 21.4896 12.5 14.5833C12.5 7.67709 18.0938 2.08334 25 2.08334C31.9063 2.08334 37.5 7.67709 37.5 14.5833C37.5 21.4896 31.9063 27.0833 25 27.0833ZM25 22.9167C29.6042 22.9167 33.3333 19.1875 33.3333 14.5833C33.3333 9.97918 29.6042 6.25001 25 6.25001C20.3958 6.25001 16.6667 9.97918 16.6667 14.5833C16.6667 19.1875 20.3958 22.9167 25 22.9167ZM43.75 35.4167H45.8333V45.8333H29.1667V35.4167H31.25V33.3333C31.25 31.6757 31.9085 30.086 33.0806 28.9139C34.2527 27.7418 35.8424 27.0833 37.5 27.0833C39.1576 27.0833 40.7473 27.7418 41.9194 28.9139C43.0915 30.086 43.75 31.6757 43.75 33.3333V35.4167ZM39.5833 35.4167V33.3333C39.5833 32.7808 39.3638 32.2509 38.9731 31.8602C38.5824 31.4695 38.0525 31.25 37.5 31.25C36.9475 31.25 36.4176 31.4695 36.0269 31.8602C35.6362 32.2509 35.4167 32.7808 35.4167 33.3333V35.4167H39.5833Z" fill="#00FF6E"/>
</g>
<defs>
<clipPath id="clip0_107_114">
<rect width="50" height="50" fill="white"/>
</clipPath>
</defs>
</svg>
